<svg width="707.1" height="200" xmlns="http://www.w3.org/2000/svg">

 <g>
  <title>background</title>
  <rect fill="none" id="canvas_background" height="402" width="582" y="-1" x="-1"/>
 </g>
 <g>
  <title>Layer 1</title>
  <polygon id="svg_1" points="0,150 0,50 86.6,0 173.2,50 173.2,150 86.6,200 " fill="#61DAFB"/>
  <polygon id="svg_3" points="0,50 86.6,100 86.6,0 " stroke-miterlimit="10" stroke="#FFFFFF" opacity="0.04"/>
  <polygon id="svg_4" points="0,150 86.6,200 86.6,100 " stroke-miterlimit="10" stroke="#FFFFFF" opacity="0.04"/>
  <polygon id="svg_5" points="86.6,100 173.2,150 173.2,50   " stroke-miterlimit="10" stroke="#FFFFFF" opacity="0.08"/>
  <polygon id="svg_6" points="86.6,100 0,50 0,150 " fill-opacity="0"/>
  <polygon id="svg_7" points="173.2,150 86.6,100 86.6,200   " stroke-miterlimit="10" stroke="#FFFFFF" opacity="0.08"/>
  <g id="svg_9">
   <text stroke="null" transform="matrix(10.589743614196777,0,0,2.65708749552687,-4358.987991884351,-139.87276936087193) " xml:space="preserve" text-anchor="start" font-family="Helvetica, Arial, sans-serif" font-size="24" id="svg_17" y="108.196734" x="457.549989" fill-opacity="null" stroke-opacity="null" stroke-width="0" fill="#000000"/>
  </g>
  <text font-weight="bold" stroke="null" xml:space="preserve" text-anchor="start" font-family="Helvetica, Arial, sans-serif" font-size="120" id="svg_18" y="143.517046" x="177.549989" fill-opacity="null" stroke-opacity="null" stroke-width="10" fill="#000000">Astro</text>
  <text font-weight="bold" stroke="null" xml:space="preserve" text-anchor="start" font-family="Helvetica, Arial, sans-serif" font-size="120" id="svg_19" y="143.517046" x="486.549989" stroke-opacity="null" stroke-width="10" fill="#007fff">Lab</text>
  <text font-weight="bold" xml:space="preserve" text-anchor="start" font-family="Helvetica, Arial, sans-serif" font-size="120" id="svg_20" y="136.173296" x="46.549989" stroke-opacity="null" stroke-width="10" stroke="null" fill="#ffffff">A</text>
 </g>
</svg>